<svg xmlns="http://www.w3.org/2000/svg" width="35" height="35" viewBox="0 0 35 35"><g transform="translate(-3407.114 -1580.113)"><g transform="translate(3407.114 1580.113)"><g transform="translate(0 0)"><circle cx="17.5" cy="17.5" r="17.5" fill="#1b9df0"/></g><g transform="translate(7.965 10.187)"><path d="M96.3,131.612a12.209,12.209,0,0,0,12.292-12.292c0-.188,0-.376-.009-.555a8.85,8.85,0,0,0,2.159-2.24,8.769,8.769,0,0,1-2.482.681,4.318,4.318,0,0,0,1.9-2.392,8.748,8.748,0,0,1-2.741,1.048,4.323,4.323,0,0,0-7.472,2.956,3.959,3.959,0,0,0,.116.985,12.255,12.255,0,0,1-8.905-4.515,4.318,4.318,0,0,0,1.344,5.761,4.244,4.244,0,0,1-1.953-.538v.054a4.325,4.325,0,0,0,3.467,4.238,4.306,4.306,0,0,1-1.138.152,4.124,4.124,0,0,1-.815-.081,4.313,4.313,0,0,0,4.032,3,8.684,8.684,0,0,1-5.366,1.846,7.855,7.855,0,0,1-1.03-.063,12.036,12.036,0,0,0,6.6,1.953" transform="translate(-89.7 -114.5)" fill="#fff"/></g></g></g></svg>